<svg xmlns="http://www.w3.org/2000/svg" viewBox="0 0 1200 630" width="1200" height="630" fill="none">
  <defs>
    <linearGradient id="bg" x1="0" y1="0" x2="1" y2="1">
      <stop offset="0%" stop-color="#0B1120"/>
      <stop offset="60%" stop-color="#0F172A"/>
      <stop offset="100%" stop-color="#155E75"/>
    </linearGradient>
  </defs>

  <rect width="1200" height="630" rx="32" fill="url(#bg)"/>
  <circle cx="940" cy="120" r="132" fill="#14B8A6" opacity="0.10"/>
  <circle cx="1038" cy="514" r="164" fill="#2563EB" opacity="0.12"/>

  <rect x="72" y="68" width="130" height="42" rx="21" fill="rgba(255,255,255,0.12)"/>
  <text x="102" y="95" font-family="monospace" font-size="24" font-weight="700" fill="#CCFBF1">LINUX</text>

  <text x="72" y="192" font-family="system-ui, sans-serif" font-size="70" font-weight="700" fill="#F8FAFC">Linux 常用命令速查</text>
  <text x="72" y="276" font-family="system-ui, sans-serif" font-size="34" font-weight="500" fill="#CFFAFE">搜索、磁盘、进程与运维排障高频命令</text>

  <rect x="72" y="344" width="530" height="206" rx="28" fill="rgba(2,6,23,0.38)" stroke="rgba(255,255,255,0.12)"/>
  <text x="104" y="398" font-family="monospace" font-size="28" fill="#93C5FD">$ grep -r "error" /var/log</text>
  <text x="104" y="444" font-family="monospace" font-size="28" fill="#E2E8F0">$ df -h && du -sh *</text>
  <text x="104" y="490" font-family="monospace" font-size="28" fill="#E2E8F0">$ ps aux | grep nginx</text>
  <text x="104" y="536" font-family="monospace" font-size="28" fill="#67E8F9">$ tail -f app.log</text>

  <rect x="700" y="156" width="392" height="330" rx="30" fill="rgba(255,255,255,0.96)"/>
  <rect x="732" y="190" width="152" height="18" rx="9" fill="#0F172A"/>
  <rect x="732" y="238" width="300" height="18" rx="9" fill="#CBD5E1"/>
  <rect x="732" y="270" width="246" height="18" rx="9" fill="#CBD5E1"/>
  <rect x="732" y="302" width="268" height="18" rx="9" fill="#CBD5E1"/>
  <rect x="732" y="360" width="140" height="120" rx="18" fill="#ECFEFF"/>
  <rect x="892" y="360" width="140" height="120" rx="18" fill="#EFF6FF"/>
  <path d="M760 440L800 390L842 420" stroke="#0F766E" stroke-width="12" stroke-linecap="round" stroke-linejoin="round"/>
  <path d="M920 448H996" stroke="#2563EB" stroke-width="12" stroke-linecap="round"/>
  <path d="M920 418H978" stroke="#1D4ED8" stroke-width="12" stroke-linecap="round"/>
  <path d="M920 388H954" stroke="#0F172A" stroke-width="12" stroke-linecap="round"/>

  <rect x="930" y="520" width="162" height="42" rx="21" fill="rgba(255,255,255,0.12)"/>
  <text x="964" y="547" font-family="monospace" font-size="24" font-weight="700" fill="#E0F2FE">OPS NOTE</text>
</svg>
