<svg xmlns="http://www.w3.org/2000/svg" viewBox="0 0 1200 630" width="1200" height="630" fill="none">
  <defs>
    <linearGradient id="bg" x1="0" y1="0" x2="1" y2="1">
      <stop offset="0%" stop-color="#111827"/>
      <stop offset="55%" stop-color="#1E293B"/>
      <stop offset="100%" stop-color="#1D4ED8"/>
    </linearGradient>
    <linearGradient id="flow" x1="0" y1="0" x2="1" y2="0">
      <stop offset="0%" stop-color="#60A5FA"/>
      <stop offset="100%" stop-color="#14B8A6"/>
    </linearGradient>
  </defs>

  <rect width="1200" height="630" rx="32" fill="url(#bg)"/>
  <circle cx="992" cy="126" r="132" fill="#60A5FA" opacity="0.10"/>
  <circle cx="1020" cy="534" r="172" fill="#14B8A6" opacity="0.08"/>

  <rect x="72" y="68" width="108" height="42" rx="21" fill="rgba(255,255,255,0.12)"/>
  <text x="106" y="95" font-family="monospace" font-size="24" font-weight="700" fill="#DBEAFE">AI</text>

  <text x="72" y="190" font-family="system-ui, sans-serif" font-size="66" font-weight="700" fill="#F8FAFC">Prompt 工程体系进化</text>
  <text x="72" y="274" font-family="system-ui, sans-serif" font-size="34" font-weight="500" fill="#CBD5E1">从 Prompt Engineering 走向 Context Engineering</text>

  <rect x="72" y="344" width="480" height="186" rx="28" fill="rgba(15,23,42,0.34)" stroke="rgba(255,255,255,0.12)"/>
  <rect x="104" y="380" width="114" height="40" rx="20" fill="rgba(96,165,250,0.18)"/>
  <rect x="252" y="380" width="128" height="40" rx="20" fill="rgba(20,184,166,0.18)"/>
  <rect x="414" y="380" width="106" height="40" rx="20" fill="rgba(255,255,255,0.12)"/>
  <text x="132" y="406" font-family="monospace" font-size="22" font-weight="700" fill="#BFDBFE">ROLE</text>
  <text x="278" y="406" font-family="monospace" font-size="22" font-weight="700" fill="#99F6E4">CONTEXT</text>
  <text x="438" y="406" font-family="monospace" font-size="22" font-weight="700" fill="#E2E8F0">VERIFY</text>
  <path d="M116 474H500" stroke="rgba(255,255,255,0.16)" stroke-width="2"/>
  <text x="104" y="462" font-family="monospace" font-size="24" fill="#E2E8F0">prompt != rhetoric</text>
  <text x="104" y="504" font-family="monospace" font-size="24" fill="#93C5FD">prompt == task spec</text>

  <rect x="650" y="152" width="456" height="350" rx="30" fill="rgba(255,255,255,0.96)"/>
  <rect x="684" y="188" width="144" height="18" rx="9" fill="#0F172A"/>
  <rect x="698" y="250" width="134" height="52" rx="18" fill="#EFF6FF"/>
  <rect x="868" y="250" width="134" height="52" rx="18" fill="#ECFEFF"/>
  <rect x="784" y="356" width="134" height="52" rx="18" fill="#F8FAFC"/>
  <text x="734" y="282" font-family="monospace" font-size="24" font-weight="700" fill="#1D4ED8">PROMPT</text>
  <text x="906" y="282" font-family="monospace" font-size="24" font-weight="700" fill="#0F766E">CONTEXT</text>
  <text x="818" y="388" font-family="monospace" font-size="24" font-weight="700" fill="#0F172A">OUTPUT</text>
  <path d="M832 302L884 346" stroke="url(#flow)" stroke-width="10" stroke-linecap="round"/>
  <path d="M936 302L900 346" stroke="url(#flow)" stroke-width="10" stroke-linecap="round"/>
  <path d="M850 348H970" stroke="rgba(15,23,42,0.14)" stroke-width="2"/>
  <rect x="708" y="432" width="340" height="18" rx="9" fill="#CBD5E1"/>
  <rect x="708" y="462" width="278" height="18" rx="9" fill="#CBD5E1"/>

  <rect x="944" y="532" width="148" height="40" rx="20" fill="rgba(255,255,255,0.12)"/>
  <text x="970" y="558" font-family="monospace" font-size="22" font-weight="700" fill="#E0F2FE">SPEC FIRST</text>
</svg>
