<svg xmlns="http://www.w3.org/2000/svg" viewBox="0 0 1200 630" width="1200" height="630" fill="none">
  <defs>
    <linearGradient id="bg" x1="0" y1="0" x2="1" y2="1">
      <stop offset="0%" stop-color="#0F172A"/>
      <stop offset="58%" stop-color="#1E3A8A"/>
      <stop offset="100%" stop-color="#2563EB"/>
    </linearGradient>
    <linearGradient id="chip" x1="0" y1="0" x2="1" y2="0">
      <stop offset="0%" stop-color="#2563EB"/>
      <stop offset="100%" stop-color="#14B8A6"/>
    </linearGradient>
  </defs>

  <rect width="1200" height="630" rx="32" fill="url(#bg)"/>
  <circle cx="936" cy="154" r="146" fill="#60A5FA" opacity="0.12"/>
  <circle cx="1032" cy="530" r="180" fill="#14B8A6" opacity="0.12"/>

  <rect x="72" y="68" width="152" height="42" rx="21" fill="rgba(255,255,255,0.12)"/>
  <text x="104" y="95" font-family="monospace" font-size="24" font-weight="700" fill="#DBEAFE">PYTHON</text>

  <text x="72" y="198" font-family="system-ui, sans-serif" font-size="68" font-weight="700" fill="#F8FAFC">Redis 高可用连接池</text>
  <text x="72" y="280" font-family="system-ui, sans-serif" font-size="34" font-weight="500" fill="#CBD5E1">重试、监控、自动重连与生产环境封装</text>

  <rect x="72" y="352" width="472" height="176" rx="28" fill="rgba(15,23,42,0.28)" stroke="rgba(255,255,255,0.12)"/>
  <text x="104" y="402" font-family="monospace" font-size="26" fill="#93C5FD">class RedisPool:</text>
  <text x="104" y="448" font-family="monospace" font-size="24" fill="#E2E8F0">def get_client(self):</text>
  <text x="104" y="490" font-family="monospace" font-size="24" fill="#E2E8F0">def retry(self):</text>
  <text x="104" y="532" font-family="monospace" font-size="24" fill="#E2E8F0">def metrics(self):</text>

  <rect x="728" y="150" width="364" height="324" rx="30" fill="rgba(255,255,255,0.95)"/>
  <rect x="758" y="186" width="146" height="18" rx="9" fill="#0F172A"/>
  <path d="M770 404C812 348 848 372 888 320C922 278 970 284 1032 224" stroke="url(#chip)" stroke-width="14" stroke-linecap="round"/>
  <circle cx="770" cy="404" r="14" fill="#2563EB"/>
  <circle cx="888" cy="320" r="14" fill="#1D4ED8"/>
  <circle cx="1032" cy="224" r="14" fill="#14B8A6"/>
  <rect x="758" y="432" width="128" height="18" rx="9" fill="#CBD5E1"/>
  <rect x="758" y="462" width="182" height="18" rx="9" fill="#CBD5E1"/>

  <rect x="932" y="514" width="160" height="42" rx="21" fill="rgba(255,255,255,0.12)"/>
  <text x="966" y="541" font-family="monospace" font-size="24" font-weight="700" fill="#E0F2FE">JASPER LABS</text>
</svg>
