<svg xmlns="http://www.w3.org/2000/svg" viewBox="0 0 720 720" width="720" height="720" fill="none">
  <defs>
    <linearGradient id="panel" x1="0" y1="0" x2="1" y2="1">
      <stop offset="0%" stop-color="#F8FAFC"/>
      <stop offset="100%" stop-color="#E2E8F0"/>
    </linearGradient>
    <linearGradient id="ink" x1="0" y1="0" x2="1" y2="1">
      <stop offset="0%" stop-color="#0F172A"/>
      <stop offset="55%" stop-color="#1D4ED8"/>
      <stop offset="100%" stop-color="#2563EB"/>
    </linearGradient>
    <linearGradient id="signal" x1="0" y1="0" x2="1" y2="0">
      <stop offset="0%" stop-color="#2563EB"/>
      <stop offset="100%" stop-color="#14B8A6"/>
    </linearGradient>
    <filter id="shadow" x="-20%" y="-20%" width="140%" height="140%">
      <feDropShadow dx="0" dy="26" stdDeviation="30" flood-color="#0F172A" flood-opacity="0.12"/>
    </filter>
  </defs>

  <circle cx="208" cy="176" r="118" fill="#2563EB" opacity="0.10"/>
  <circle cx="548" cy="174" r="102" fill="#14B8A6" opacity="0.10"/>
  <circle cx="544" cy="540" r="126" fill="#1D4ED8" opacity="0.08"/>

  <g filter="url(#shadow)">
    <rect x="88" y="112" width="544" height="496" rx="34" fill="url(#panel)"/>
    <rect x="88" y="112" width="544" height="496" rx="34" stroke="#CBD5E1"/>
  </g>

  <rect x="118" y="144" width="484" height="52" rx="18" fill="#E2E8F0"/>
  <circle cx="154" cy="170" r="7" fill="#EF4444"/>
  <circle cx="178" cy="170" r="7" fill="#F59E0B"/>
  <circle cx="202" cy="170" r="7" fill="#10B981"/>
  <rect x="232" y="160" width="128" height="18" rx="9" fill="#CBD5E1"/>

  <rect x="118" y="220" width="210" height="164" rx="24" fill="#0F172A"/>
  <rect x="138" y="246" width="86" height="10" rx="5" fill="#60A5FA"/>
  <rect x="138" y="274" width="128" height="10" rx="5" fill="#334155"/>
  <rect x="138" y="298" width="110" height="10" rx="5" fill="#334155"/>
  <rect x="138" y="322" width="98" height="10" rx="5" fill="#334155"/>
  <path d="M138 354H302" stroke="#1E293B" stroke-width="2"/>
  <text x="138" y="344" font-family="monospace" font-size="18" fill="#E2E8F0">class RedisPool:</text>
  <text x="138" y="374" font-family="monospace" font-size="16" fill="#93C5FD">retry()</text>
  <text x="212" y="374" font-family="monospace" font-size="16" fill="#CBD5E1"> monitor()</text>

  <rect x="352" y="220" width="250" height="164" rx="24" fill="white"/>
  <rect x="352" y="220" width="250" height="164" rx="24" stroke="#CBD5E1"/>
  <rect x="378" y="250" width="88" height="12" rx="6" fill="#0F172A"/>
  <rect x="378" y="282" width="190" height="10" rx="5" fill="#CBD5E1"/>
  <rect x="378" y="304" width="164" height="10" rx="5" fill="#CBD5E1"/>
  <rect x="378" y="326" width="128" height="10" rx="5" fill="#CBD5E1"/>
  <path d="M380 356C412 322 450 336 478 310C502 288 530 292 572 258" stroke="url(#signal)" stroke-width="8" stroke-linecap="round"/>
  <circle cx="380" cy="356" r="9" fill="#2563EB"/>
  <circle cx="478" cy="310" r="9" fill="#1D4ED8"/>
  <circle cx="572" cy="258" r="9" fill="#14B8A6"/>

  <rect x="118" y="410" width="484" height="168" rx="28" fill="white"/>
  <rect x="118" y="410" width="484" height="168" rx="28" stroke="#CBD5E1"/>

  <rect x="146" y="440" width="118" height="16" rx="8" fill="#0F172A"/>
  <rect x="146" y="474" width="146" height="10" rx="5" fill="#CBD5E1"/>
  <rect x="146" y="498" width="116" height="10" rx="5" fill="#CBD5E1"/>
  <rect x="146" y="522" width="96" height="10" rx="5" fill="#CBD5E1"/>

  <rect x="320" y="438" width="116" height="108" rx="18" fill="#EFF6FF"/>
  <rect x="464" y="438" width="110" height="108" rx="18" fill="#F0FDFA"/>
  <path d="M350 514L378 472L400 490L424 456" stroke="#2563EB" stroke-width="8" stroke-linecap="round" stroke-linejoin="round"/>
  <path d="M492 518H548" stroke="#0F766E" stroke-width="8" stroke-linecap="round"/>
  <path d="M492 490H534" stroke="#14B8A6" stroke-width="8" stroke-linecap="round"/>
  <path d="M492 462H516" stroke="#0F172A" stroke-width="8" stroke-linecap="round"/>

  <rect x="520" y="132" width="82" height="32" rx="16" fill="#0F172A"/>
  <text x="542" y="153" font-family="monospace" font-size="15" fill="#E2E8F0">SPEC</text>
</svg>
